<svg width="38" height="40" viewBox="0 0 38 40" fill="none" xmlns="http://www.w3.org/2000/svg">
<g id="Social Icons" clip-path="url(#clip0_152_263)">
<path id="Vector" d="M19 3.60156C24.0766 3.60156 24.6777 3.625 26.6742 3.71875C28.5297 3.80469 29.5316 4.13281 30.1996 4.40625C31.0828 4.76563 31.7211 5.20313 32.3816 5.89844C33.0496 6.60156 33.4578 7.26563 33.7992 8.19531C34.059 8.89844 34.3707 9.96094 34.4523 11.9062C34.5414 14.0156 34.5637 14.6484 34.5637 19.9844C34.5637 25.3281 34.5414 25.9609 34.4523 28.0625C34.3707 30.0156 34.059 31.0703 33.7992 31.7734C33.4578 32.7031 33.0422 33.375 32.3816 34.0703C31.7137 34.7734 31.0828 35.2031 30.1996 35.5625C29.5316 35.8359 28.5223 36.1641 26.6742 36.25C24.6703 36.3438 24.0691 36.3672 19 36.3672C13.9234 36.3672 13.3223 36.3438 11.3258 36.25C9.47031 36.1641 8.46836 35.8359 7.80039 35.5625C6.91719 35.2031 6.27891 34.7656 5.61836 34.0703C4.95039 33.3672 4.54219 32.7031 4.20078 31.7734C3.94102 31.0703 3.6293 30.0078 3.54766 28.0625C3.45859 25.9531 3.43633 25.3203 3.43633 19.9844C3.43633 14.6406 3.45859 14.0078 3.54766 11.9062C3.6293 9.95312 3.94102 8.89844 4.20078 8.19531C4.54219 7.26563 4.95781 6.59375 5.61836 5.89844C6.28633 5.19531 6.91719 4.76563 7.80039 4.40625C8.46836 4.13281 9.47774 3.80469 11.3258 3.71875C13.3223 3.625 13.9234 3.60156 19 3.60156ZM19 0C13.8418 0 13.1961 0.0234375 11.1699 0.117188C9.15117 0.210938 7.76328 0.554687 6.56094 1.04688C5.30664 1.5625 4.24531 2.24219 3.19141 3.35938C2.13008 4.46875 1.48438 5.58594 0.994531 6.89844C0.526953 8.17188 0.200391 9.625 0.111328 11.75C0.0222656 13.8906 0 14.5703 0 20C0 25.4297 0.0222656 26.1094 0.111328 28.2422C0.200391 30.3672 0.526953 31.8281 0.994531 33.0938C1.48438 34.4141 2.13008 35.5312 3.19141 36.6406C4.24531 37.75 5.30664 38.4375 6.55352 38.9453C7.76328 39.4375 9.14375 39.7812 11.1625 39.875C13.1887 39.9688 13.8344 39.9922 18.9926 39.9922C24.1508 39.9922 24.7965 39.9688 26.8227 39.875C28.8414 39.7812 30.2293 39.4375 31.4316 38.9453C32.6785 38.4375 33.7398 37.75 34.7938 36.6406C35.8477 35.5312 36.5008 34.4141 36.9832 33.1016C37.4508 31.8281 37.7773 30.375 37.8664 28.25C37.9555 26.1172 37.9777 25.4375 37.9777 20.0078C37.9777 14.5781 37.9555 13.8984 37.8664 11.7656C37.7773 9.64063 37.4508 8.17969 36.9832 6.91406C36.5156 5.58594 35.8699 4.46875 34.8086 3.35938C33.7547 2.25 32.6934 1.5625 31.4465 1.05469C30.2367 0.5625 28.8563 0.21875 26.8375 0.125C24.8039 0.0234375 24.1582 0 19 0Z" fill="#5390F4"/>
<path id="Vector_2" d="M19 9.72656C13.6117 9.72656 9.24023 14.3281 9.24023 20C9.24023 25.6719 13.6117 30.2734 19 30.2734C24.3883 30.2734 28.7598 25.6719 28.7598 20C28.7598 14.3281 24.3883 9.72656 19 9.72656ZM19 26.6641C15.5043 26.6641 12.6691 23.6797 12.6691 20C12.6691 16.3203 15.5043 13.3359 19 13.3359C22.4957 13.3359 25.3309 16.3203 25.3309 20C25.3309 23.6797 22.4957 26.6641 19 26.6641Z" fill="#5390F4"/>
<path id="Vector_3" d="M31.4242 9.32032C31.4242 10.6484 30.4 11.7188 29.1457 11.7188C27.884 11.7188 26.8672 10.6406 26.8672 9.32032C26.8672 7.99219 27.8914 6.92188 29.1457 6.92188C30.4 6.92188 31.4242 8 31.4242 9.32032Z" fill="#5390F4"/>
</g>
<defs>
<clipPath id="clip0_152_263">
<rect width="38" height="40" fill="white"/>
</clipPath>
</defs>
</svg>
