<svg width="137" height="137" viewBox="0 0 137 137" fill="none" xmlns="http://www.w3.org/2000/svg">
<g id="kwh" clip-path="url(#clip0_425_19)">
<path id="Vector" fill-rule="evenodd" clip-rule="evenodd" d="M38.9023 129.011V129.865C38.9023 131.567 39.5788 133.201 40.7832 134.406C41.9877 135.61 43.6203 136.286 45.3242 136.286C46.6114 136.286 48.0257 136.286 49.3129 136.286C51.0169 136.286 52.6509 135.61 53.8539 134.406C55.0584 133.201 55.7348 131.567 55.7348 129.865V122.758C55.7348 121.576 54.7758 120.617 53.5942 120.617C52.414 120.617 51.4535 121.576 51.4535 122.758V129.865C51.4535 130.433 51.2281 130.976 50.8271 131.379C50.426 131.78 49.8809 132.005 49.3129 132.005H45.3242C44.7562 132.005 44.2111 131.78 43.8101 131.379C43.4091 130.976 43.1836 130.433 43.1836 129.865V129.011C43.1836 127.83 42.2232 126.871 41.043 126.871C39.8613 126.871 38.9023 127.83 38.9023 129.011ZM81.2653 129.011V129.865C81.2653 131.567 81.9418 133.201 83.1462 134.406C84.3492 135.61 85.9833 136.286 87.6872 136.286C88.9744 136.286 90.3887 136.286 91.6759 136.286C93.3798 136.286 95.0124 135.61 96.2169 134.406C97.4213 133.201 98.0978 131.567 98.0978 129.865V122.758C98.0978 121.576 97.1388 120.617 95.9571 120.617C94.7769 120.617 93.8165 121.576 93.8165 122.758V129.865C93.8165 130.433 93.591 130.976 93.19 131.379C92.789 131.78 92.2439 132.005 91.6759 132.005H87.6872C87.1192 132.005 86.5741 131.78 86.1731 131.379C85.772 130.976 85.5466 130.433 85.5466 129.865V129.011C85.5466 127.83 84.5861 126.871 83.4059 126.871C82.2243 126.871 81.2653 127.83 81.2653 129.011Z" fill="url(#paint0_linear_425_19)"/>
<path id="Vector_2" fill-rule="evenodd" clip-rule="evenodd" d="M30.2183 85.7963C29.0352 85.7963 28.0776 86.7553 28.0776 87.9369V118.476C28.0776 122.023 30.9518 124.898 34.4995 124.898C47.9212 124.898 89.0783 124.898 102.5 124.898C106.048 124.898 108.922 122.023 108.922 118.476V87.9369C108.922 86.7553 107.964 85.7963 106.781 85.7963H30.2183ZM32.3589 90.0775H104.641V118.476C104.641 119.658 103.683 120.617 102.5 120.617H34.4995C33.3165 120.617 32.3589 119.658 32.3589 118.476V90.0775Z" fill="url(#paint1_linear_425_19)"/>
<path id="Vector_3" fill-rule="evenodd" clip-rule="evenodd" d="M44.6421 95.9243V99.8488C44.6421 103.396 47.5177 106.271 51.064 106.271H85.9362C89.4825 106.271 92.3581 103.396 92.3581 99.8488V87.9369C92.3581 86.7553 91.399 85.7963 90.2174 85.7963C89.0358 85.7963 88.0768 86.7553 88.0768 87.9369V99.8488C88.0768 101.032 87.1178 101.989 85.9362 101.989H51.064C49.8823 101.989 48.9233 101.032 48.9233 99.8488V95.9243C48.9233 94.7427 47.9643 93.7837 46.7827 93.7837C45.6011 93.7837 44.6421 94.7427 44.6421 95.9243Z" fill="url(#paint2_linear_425_19)"/>
<path id="Vector_4" fill-rule="evenodd" clip-rule="evenodd" d="M70.6406 103.408V88.4421C70.6406 87.2605 69.6816 86.3015 68.5 86.3015C67.3184 86.3015 66.3594 87.2605 66.3594 88.4421V103.408C66.3594 104.588 67.3184 105.549 68.5 105.549C69.6816 105.549 70.6406 104.588 70.6406 103.408Z" fill="url(#paint3_linear_425_19)"/>
<path id="Vector_5" fill-rule="evenodd" clip-rule="evenodd" d="M117.666 7.13544C117.666 3.58914 114.79 0.713562 111.244 0.713562H25.7559C22.2096 0.713562 19.334 3.58914 19.334 7.13544C19.334 21.6817 19.334 69.1094 19.334 83.6556C19.334 87.202 22.2096 90.0775 25.7559 90.0775H111.244C114.79 90.0775 117.666 87.202 117.666 83.6556V7.13544ZM113.384 7.13544V83.6556C113.384 84.8387 112.425 85.7963 111.244 85.7963H25.7559C24.5742 85.7963 23.6152 84.8387 23.6152 83.6556C23.6152 69.1094 23.6152 21.6817 23.6152 7.13544C23.6152 5.95381 24.5742 4.99481 25.7559 4.99481H111.244C112.425 4.99481 113.384 5.95381 113.384 7.13544Z" fill="url(#paint4_linear_425_19)"/>
<path id="Vector_6" fill-rule="evenodd" clip-rule="evenodd" d="M108.538 17.526C108.538 13.9783 105.662 11.1041 102.116 11.1041H34.8833C31.337 11.1041 28.4614 13.9783 28.4614 17.526C28.4614 21.1251 28.4614 26.2469 28.4614 29.846C28.4614 33.3937 31.337 36.2679 34.8833 36.2679H102.116C105.662 36.2679 108.538 33.3937 108.538 29.846V17.526ZM104.257 17.526V29.846C104.257 31.0291 103.298 31.9866 102.116 31.9866H34.8833C33.7017 31.9866 32.7427 31.0291 32.7427 29.846C32.7427 26.2469 32.7427 21.1251 32.7427 17.526C32.7427 16.3429 33.7017 15.3854 34.8833 15.3854H102.116C103.298 15.3854 104.257 16.3429 104.257 17.526Z" fill="url(#paint5_linear_425_19)"/>
<path id="Vector_7" fill-rule="evenodd" clip-rule="evenodd" d="M83.2728 33.425V13.9467C83.2728 12.7651 82.3138 11.8061 81.1322 11.8061C79.9506 11.8061 78.9916 12.7651 78.9916 13.9467V33.425C78.9916 34.6066 79.9506 35.5656 81.1322 35.5656C82.3138 35.5656 83.2728 34.6066 83.2728 33.425ZM53.7265 19.8791V33.425C53.7265 34.6066 54.6855 35.5656 55.8671 35.5656C57.0488 35.5656 58.0078 34.6066 58.0078 33.425V19.8791C58.0078 18.6975 57.0488 17.7385 55.8671 17.7385C54.6855 17.7385 53.7265 18.6975 53.7265 19.8791ZM86.2769 48.024C83.3157 53.1501 78.3865 61.6855 75.4267 66.813C74.5334 68.3586 74.5334 70.2623 75.4253 71.8078C76.3187 73.3533 77.9669 74.3052 79.7522 74.3052C85.6732 74.3052 95.5315 74.3052 101.452 74.3052C103.238 74.3052 104.886 73.3533 105.778 71.8078C106.67 70.2623 106.67 68.3586 105.778 66.813C102.817 61.6855 97.8876 53.1501 94.9278 48.024C94.0345 46.4785 92.3862 45.5266 90.6023 45.5266C88.8171 45.5266 87.1688 46.4785 86.2769 48.024ZM79.1343 68.9536L89.9844 50.1647C90.1114 49.9435 90.3469 49.8079 90.6023 49.8079C90.8564 49.8079 91.0918 49.9435 91.2203 50.1647L102.07 68.9536C102.197 69.1748 102.197 69.446 102.07 69.6672C101.943 69.8884 101.708 70.024 101.452 70.024H79.7522C79.4968 70.024 79.2613 69.8884 79.1343 69.6672C79.0059 69.446 79.0059 69.1748 79.1343 68.9536ZM62.887 42.6739C58.3959 42.6739 54.7497 46.3201 54.7497 50.8111C54.7497 55.3036 58.3959 58.9498 62.887 58.9498C67.3794 58.9498 71.0256 55.3036 71.0256 50.8111C71.0256 46.3201 67.3794 42.6739 62.887 42.6739ZM62.887 46.9552C65.0162 46.9552 66.7444 48.6833 66.7444 50.8111C66.7444 52.9403 65.0162 54.6685 62.887 54.6685C60.7592 54.6685 59.031 52.9403 59.031 50.8111C59.031 48.6833 60.7592 46.9552 62.887 46.9552ZM36.6001 42.6739C32.109 42.6739 28.4614 46.3201 28.4614 50.8111C28.4614 55.3036 32.109 58.9498 36.6001 58.9498C41.0911 58.9498 44.7387 55.3036 44.7387 50.8111C44.7387 46.3201 41.0911 42.6739 36.6001 42.6739ZM36.6001 46.9552C38.7293 46.9552 40.4575 48.6833 40.4575 50.8111C40.4575 52.9403 38.7293 54.6685 36.6001 54.6685C34.4709 54.6685 32.7427 52.9403 32.7427 50.8111C32.7427 48.6833 34.4709 46.9552 36.6001 46.9552Z" fill="url(#paint6_linear_425_19)"/>
<path id="Vector_8" fill-rule="evenodd" clip-rule="evenodd" d="M90.2085 66.067L92.4561 62.1739C93.0469 61.1507 92.6959 59.8406 91.6726 59.2498C90.6494 58.659 89.3394 59.01 88.7486 60.0332L86.5009 63.9249C85.9101 64.9481 86.2597 66.2596 87.2829 66.8504C88.3062 67.4412 89.6162 67.0902 90.2085 66.067ZM30.6021 71.0318H44.4733C45.6549 71.0318 46.6139 70.0728 46.6139 68.8912C46.6139 67.7095 45.6549 66.7505 44.4733 66.7505H30.6021C29.4219 66.7505 28.4614 67.7095 28.4614 68.8912C28.4614 70.0728 29.4219 71.0318 30.6021 71.0318ZM30.6021 79.687H62.2876C63.4678 79.687 64.4282 78.728 64.4282 77.5464C64.4282 76.3662 63.4678 75.4058 62.2876 75.4058H30.6021C29.4219 75.4058 28.4614 76.3662 28.4614 77.5464C28.4614 78.728 29.4219 79.687 30.6021 79.687Z" fill="url(#paint7_linear_425_19)"/>
</g>
<defs>
<linearGradient id="paint0_linear_425_19" x1="38.9023" y1="120.617" x2="46.6547" y2="149.904" gradientUnits="userSpaceOnUse">
<stop stop-color="#2A7998"/>
<stop offset="0.344" stop-color="#0F56C9"/>
<stop offset="0.684" stop-color="#171661"/>
<stop offset="1" stop-color="#020E24"/>
</linearGradient>
<linearGradient id="paint1_linear_425_19" x1="28.0776" y1="85.7963" x2="58.7316" y2="149.174" gradientUnits="userSpaceOnUse">
<stop stop-color="#2A7998"/>
<stop offset="0.344" stop-color="#0F56C9"/>
<stop offset="0.684" stop-color="#171661"/>
<stop offset="1" stop-color="#020E24"/>
</linearGradient>
<linearGradient id="paint2_linear_425_19" x1="44.6421" y1="85.7963" x2="59.4807" y2="120.378" gradientUnits="userSpaceOnUse">
<stop stop-color="#2A7998"/>
<stop offset="0.344" stop-color="#0F56C9"/>
<stop offset="0.684" stop-color="#171661"/>
<stop offset="1" stop-color="#020E24"/>
</linearGradient>
<linearGradient id="paint3_linear_425_19" x1="66.3594" y1="86.3015" x2="74.5182" y2="88.1163" gradientUnits="userSpaceOnUse">
<stop stop-color="#2A7998"/>
<stop offset="0.344" stop-color="#0F56C9"/>
<stop offset="0.684" stop-color="#171661"/>
<stop offset="1" stop-color="#020E24"/>
</linearGradient>
<linearGradient id="paint4_linear_425_19" x1="19.334" y1="0.713562" x2="108.291" y2="98.5974" gradientUnits="userSpaceOnUse">
<stop stop-color="#2A7998"/>
<stop offset="0.344" stop-color="#0F56C9"/>
<stop offset="0.684" stop-color="#171661"/>
<stop offset="1" stop-color="#020E24"/>
</linearGradient>
<linearGradient id="paint5_linear_425_19" x1="28.4614" y1="11.1041" x2="15.9654" y2="89.581" gradientUnits="userSpaceOnUse">
<stop stop-color="#2A7998"/>
<stop offset="0.425877" stop-color="#0F56C9"/>
<stop offset="0.684" stop-color="#171661"/>
<stop offset="1" stop-color="#020E24"/>
</linearGradient>
<linearGradient id="paint6_linear_425_19" x1="28.4614" y1="11.8061" x2="117.154" y2="143.295" gradientUnits="userSpaceOnUse">
<stop offset="0.195467" stop-color="#2A7998"/>
<stop offset="0.344" stop-color="#0F56C9"/>
<stop offset="0.684" stop-color="#171661"/>
<stop offset="1" stop-color="#020E24"/>
</linearGradient>
<linearGradient id="paint7_linear_425_19" x1="28.4614" y1="58.9629" x2="40.5661" y2="96.5087" gradientUnits="userSpaceOnUse">
<stop stop-color="#2A7998"/>
<stop offset="0.344" stop-color="#0F56C9"/>
<stop offset="0.684" stop-color="#171661"/>
<stop offset="1" stop-color="#020E24"/>
</linearGradient>
<clipPath id="clip0_425_19">
<rect width="137" height="137" fill="white"/>
</clipPath>
</defs>
</svg>
