<svg width="39" height="40" viewBox="0 0 39 40" fill="none" xmlns="http://www.w3.org/2000/svg">
<g id="Social Icons" clip-path="url(#clip0_152_262)">
<path id="Vector" d="M36.1131 0H2.8793C1.2873 0 0 1.28906 0 2.88281V37.1094C0 38.7031 1.2873 40 2.8793 40H36.1131C37.7051 40 39 38.7031 39 37.1172V2.88281C39 1.28906 37.7051 0 36.1131 0ZM11.5705 34.0859H5.78145V14.9922H11.5705V34.0859ZM8.67598 12.3906C6.81738 12.3906 5.3168 10.8516 5.3168 8.95312C5.3168 7.05469 6.81738 5.51562 8.67598 5.51562C10.527 5.51562 12.0275 7.05469 12.0275 8.95312C12.0275 10.8438 10.527 12.3906 8.67598 12.3906ZM33.2338 34.0859H27.4523V24.8047C27.4523 22.5938 27.4143 19.7422 24.4436 19.7422C21.4348 19.7422 20.9777 22.1562 20.9777 24.6484V34.0859H15.2039V14.9922H20.7492V17.6016H20.8254C21.5947 16.1016 23.4838 14.5156 26.2945 14.5156C32.1522 14.5156 33.2338 18.4688 33.2338 23.6094V34.0859Z" fill="#5390F4"/>
</g>
<defs>
<clipPath id="clip0_152_262">
<rect width="39" height="40" fill="white"/>
</clipPath>
</defs>
</svg>
