<svg width="699" height="109" viewBox="0 0 699 109" fill="none" xmlns="http://www.w3.org/2000/svg">
<mask id="mask0_152_301" style="mask-type:alpha" maskUnits="userSpaceOnUse" x="0" y="0" width="699" height="110">
<path d="M100.272 0C103.022 0 105.252 2.22937 105.252 4.97949C105.252 6.37999 104.673 7.64385 103.742 8.54883L117.477 99.0312C119.089 99.8555 120.194 101.532 120.194 103.467C120.194 106.217 117.964 108.447 115.213 108.447C113.259 108.447 111.568 107.32 110.753 105.681H108.605C107.79 107.32 106.099 108.446 104.144 108.446C101.394 108.446 99.1646 106.217 99.1646 103.467C99.1647 101.801 99.9831 100.326 101.24 99.4219L91.1079 29.4697C89.3401 28.705 88.1031 26.946 88.103 24.8975C88.1032 22.1474 90.3325 19.9181 93.0825 19.918C95.8325 19.9182 98.0629 22.1475 98.063 24.8975C98.0629 26.5325 97.2733 27.9826 96.0562 28.8906L106.201 98.9316C107.05 99.3172 107.772 99.9335 108.286 100.701H111.073C111.444 100.147 111.923 99.6705 112.481 99.3037L98.8901 9.76367C97.7437 9.4329 96.7676 8.70238 96.1226 7.73145C95.3445 8.90227 94.0852 9.72358 92.6265 9.91504L70.5542 52.833C70.8075 53.43 70.9477 54.087 70.9478 54.7764C70.9475 57.5264 68.7174 59.7568 65.9673 59.7568C63.2174 59.7566 60.988 57.5263 60.9878 54.7764C60.9879 52.0264 63.2173 49.7971 65.9673 49.7969C66.1477 49.7969 66.326 49.8065 66.5015 49.8252L88.0122 7.99805C87.373 7.16044 86.9927 6.11435 86.9927 4.97949C86.9928 2.2296 89.2223 0.000363832 91.9722 0C93.7043 0 95.2302 0.884684 96.1226 2.22656C97.0146 0.884696 98.5399 0.000132439 100.272 0ZM104.422 101.254C103.353 101.254 102.486 102.121 102.486 103.19C102.486 104.26 103.353 105.127 104.422 105.127C105.492 105.127 106.359 104.26 106.359 103.19C106.359 102.121 105.492 101.254 104.422 101.254ZM115.491 101.254C114.421 101.254 113.554 102.121 113.554 103.19C113.554 104.26 114.421 105.127 115.491 105.127C116.56 105.127 117.427 104.26 117.427 103.19C117.427 102.121 116.56 101.254 115.491 101.254ZM66.2446 52.5635C65.1755 52.5638 64.3083 53.4308 64.3081 54.5C64.3084 55.5691 65.1755 56.4362 66.2446 56.4365C67.314 56.4365 68.1809 55.5693 68.1812 54.5C68.181 53.4306 67.3141 52.5635 66.2446 52.5635ZM93.3599 22.6846C92.2905 22.6847 91.4234 23.5517 91.4233 24.6211C91.4234 25.6904 92.2905 26.5575 93.3599 26.5576C94.4291 26.5574 95.2963 25.6904 95.2964 24.6211C95.2963 23.5518 94.4291 22.6848 93.3599 22.6846ZM92.2495 2.7666C91.1804 2.76693 90.3132 3.63393 90.313 4.70312C90.313 5.77246 91.1803 6.63932 92.2495 6.63965C93.319 6.63965 94.186 5.77266 94.186 4.70312C94.1859 3.63373 93.3189 2.7666 92.2495 2.7666ZM100.549 2.7666C99.4801 2.76689 98.613 3.63391 98.6128 4.70312C98.6128 5.77248 99.48 6.63936 100.549 6.63965C101.619 6.63965 102.486 5.77266 102.486 4.70312C102.486 3.63373 101.619 2.7666 100.549 2.7666Z" fill="url(#paint0_linear_152_301)"/>
<path d="M23.9175 39.8364C26.6676 39.8364 28.8977 42.0659 28.8979 44.8159C28.8979 45.2724 28.8353 45.7143 28.7202 46.1343L56.5815 98.52C59.0623 98.8038 60.9896 100.91 60.9897 103.466C60.9897 106.217 58.7595 108.447 56.0093 108.447C53.2592 108.447 51.0298 106.216 51.0298 103.466C51.0299 102.36 51.3902 101.338 52.0005 100.511L25.1216 49.9731L18.7485 90.188C19.8768 91.1008 20.599 92.4959 20.5991 94.0601C20.5991 96.8102 18.3688 99.0404 15.6187 99.0405C12.8685 99.0404 10.6392 96.8102 10.6392 94.0601C10.6394 91.9407 11.9635 90.1314 13.8296 89.4126L20.3462 48.2847C19.4754 47.3878 18.938 46.1646 18.938 44.8159C18.9382 42.0661 21.1677 39.8368 23.9175 39.8364ZM56.2876 101.253C55.2183 101.254 54.3513 102.121 54.3511 103.19C54.3511 104.259 55.2181 105.126 56.2876 105.126C57.357 105.126 58.2241 104.259 58.2241 103.19C58.2238 102.121 57.3569 101.254 56.2876 101.253ZM15.896 91.8481C14.8266 91.8482 13.9596 92.7153 13.9595 93.7847C13.9597 94.854 14.8266 95.7212 15.896 95.7212C16.9653 95.7211 17.8323 94.8539 17.8325 93.7847C17.8324 92.7153 16.9654 91.8483 15.896 91.8481ZM24.1948 42.603C23.1257 42.6034 22.2584 43.4713 22.2583 44.5405C22.2586 45.6096 23.1258 46.4767 24.1948 46.4771C25.2642 46.4771 26.1311 45.6098 26.1313 44.5405C26.1312 43.4711 25.2643 42.603 24.1948 42.603Z" fill="url(#paint1_linear_152_301)"/>
<path d="M18.9355 6.63721C21.6857 6.63721 23.9159 8.86658 23.916 11.6167C23.916 12.7366 23.546 13.7701 22.9219 14.6021L23.332 14.3843L65.7129 94.0698C65.7553 94.0724 65.7977 94.075 65.8398 94.0786L75.457 76.0229C75.0522 75.3027 74.8194 74.4724 74.8193 73.5874C74.8195 70.8375 77.049 68.6083 79.7988 68.6079C82.549 68.6079 84.7792 70.8373 84.7793 73.5874C84.7791 76.3375 82.549 78.5679 79.7988 78.5679C79.7809 78.5679 79.763 78.5661 79.7451 78.5659L69.9424 96.9722C70.2304 97.602 70.3925 98.3018 70.3926 99.0396C70.3926 101.79 68.1621 104.02 65.4121 104.02C62.662 104.02 60.4326 101.79 60.4326 99.0396C60.4327 98.0255 60.7353 97.0822 61.2559 96.2954L19.9023 18.5405L7.93457 99.3706C8.45022 99.7276 8.89599 100.178 9.24512 100.7H20.8809C21.3929 99.9346 22.1118 99.3199 22.957 98.9341L26.2031 79.5757C25.1424 78.6623 24.4697 77.3098 24.4697 75.8003C24.47 73.0505 26.6994 70.8211 29.4492 70.8208C32.1993 70.8208 34.4294 73.0503 34.4297 75.8003C34.4297 77.9728 33.038 79.8199 31.0977 80.5005L27.9258 99.4214C29.1828 100.325 30.0027 101.799 30.0029 103.465C30.0029 106.215 27.7725 108.446 25.0225 108.446C23.0676 108.446 21.3765 107.319 20.5615 105.679H9.56543C8.75033 107.319 7.05868 108.447 5.10352 108.447C2.35351 108.447 0.124164 106.216 0.124023 103.466C0.12412 101.484 1.28282 99.7714 2.95996 98.9702L15.3779 15.0991C14.499 14.201 13.9561 12.9725 13.9561 11.6167C13.9562 8.86673 16.1856 6.63745 18.9355 6.63721ZM5.38086 101.253C4.31155 101.254 3.44443 102.121 3.44434 103.19C3.44448 104.259 4.31158 105.126 5.38086 105.126C6.45031 105.126 7.31724 104.259 7.31738 103.19C7.31729 102.12 6.45034 101.253 5.38086 101.253ZM25.2998 101.252C24.2306 101.253 23.3636 102.12 23.3633 103.189C23.3633 104.258 24.2304 105.125 25.2998 105.125C26.3692 105.125 27.2363 104.258 27.2363 103.189C27.236 102.12 26.369 101.253 25.2998 101.252ZM65.6895 96.8267C64.6202 96.8268 63.7532 97.694 63.7529 98.7632C63.7529 99.8326 64.62 100.7 65.6895 100.7C66.7588 100.699 67.626 99.8326 67.626 98.7632C67.6257 97.694 66.7586 96.8269 65.6895 96.8267ZM29.7266 73.5864C28.6574 73.5867 27.7903 74.4537 27.79 75.5229C27.79 76.5923 28.6572 77.4592 29.7266 77.4595C30.7961 77.4595 31.6631 76.5925 31.6631 75.5229C31.6629 74.4536 30.796 73.5864 29.7266 73.5864ZM80.0762 71.3745C79.0071 71.3748 78.1399 72.2419 78.1396 73.311C78.1398 74.3802 79.007 75.2482 80.0762 75.2485C81.1456 75.2485 82.0125 74.3804 82.0127 73.311C82.0125 72.2417 81.1456 71.3745 80.0762 71.3745ZM19.2129 9.40381C18.1437 9.40416 17.2765 10.2711 17.2764 11.3403C17.2764 12.4096 18.1437 13.2765 19.2129 13.2769C20.2824 13.2769 21.1503 12.4098 21.1504 11.3403C21.1503 10.2709 20.2824 9.40381 19.2129 9.40381Z" fill="url(#paint2_linear_152_301)"/>
<path d="M26.6782 0C29.4284 0 31.6586 2.22937 31.6587 4.97949C31.6587 5.93147 31.3908 6.82071 30.9272 7.57715L65.1851 71.9893C65.4156 71.9529 65.6512 71.9332 65.8911 71.9297L81.7769 42.0996C81.2267 41.2985 80.9038 40.3293 80.9038 39.2842C80.9039 36.5341 83.1333 34.3048 85.8833 34.3047C88.6333 34.3048 90.8636 36.5341 90.8638 39.2842C90.8638 40.7551 90.2248 42.0765 89.2104 42.9883L96.7681 99.4727C98.5064 100.25 99.7182 101.993 99.7183 104.021C99.718 106.771 97.4879 109.001 94.7378 109.001C91.9879 109.001 89.7585 106.77 89.7583 104.021C89.7584 102.364 90.5681 100.895 91.813 99.9902L84.7407 47.1289L70.2417 74.3545C70.6886 75.1011 70.9467 75.9739 70.9468 76.9072C70.9468 79.6574 68.7164 81.8875 65.9663 81.8877C63.2163 81.8875 60.9868 79.6573 60.9868 76.9072C60.9868 76.3219 61.0874 75.76 61.2729 75.2383L26.5522 9.95605C23.8604 9.88903 21.6987 7.68751 21.6987 4.97949C21.6989 2.22945 23.9282 0.000133999 26.6782 0ZM95.0151 101.808C93.9461 101.808 93.0788 102.675 93.0786 103.744C93.0788 104.813 93.9461 105.68 95.0151 105.681C96.0845 105.681 96.9524 104.813 96.9526 103.744C96.9524 102.675 96.0846 101.808 95.0151 101.808ZM66.2437 74.6943C65.1744 74.6946 64.3073 75.5616 64.3071 76.6309C64.3071 77.7002 65.1743 78.5671 66.2437 78.5674C67.313 78.5672 68.1802 77.7003 68.1802 76.6309C68.18 75.5616 67.3129 74.6945 66.2437 74.6943ZM86.1606 37.0713C85.0912 37.0713 84.2243 37.9384 84.2241 39.0078C84.2241 40.0773 85.0911 40.9443 86.1606 40.9443C87.2301 40.9442 88.0972 40.0773 88.0972 39.0078C88.097 37.9385 87.23 37.0714 86.1606 37.0713ZM26.9556 2.7666C25.8863 2.76683 25.0192 3.63387 25.019 4.70312C25.019 5.77252 25.8862 6.63942 26.9556 6.63965C28.0251 6.63965 28.8921 5.77266 28.8921 4.70312C28.8919 3.63373 28.025 2.7666 26.9556 2.7666Z" fill="url(#paint3_linear_152_301)"/>
<path d="M153.945 83.8236H165.564V45.6456L187.143 67.2244L208.999 45.6456V83.8236H220.618V23.79H213.978L187.143 50.072L160.861 23.79H153.945V83.8236Z" fill="url(#paint4_linear_152_301)"/>
<path d="M242.197 83.8236V23.79H280.098V36.2394H253.54V48.4121H272.905V60.0315H253.54V72.4808H280.098V83.8236H242.197Z" fill="url(#paint5_linear_152_301)"/>
<path d="M292.548 36.2394V23.79H337.089V36.2394H320.766V83.8236H308.87V36.2394H292.548Z" fill="url(#paint6_linear_152_301)"/>
<path d="M386.609 50.072L413.444 23.7908H420.638V83.824H408.188V45.9226L386.609 66.948L365.03 45.9226V83.824H353.411V23.7908H360.327L386.609 50.072ZM480.118 36.5164H453.282V48.1355H472.648V60.5847H453.282V72.2048H480.118V83.824H440.833V23.7908H480.118V36.5164ZM537.108 36.5164H520.509V83.824H508.336V36.5164H491.737V23.7908H537.108V36.5164ZM577.779 23.8005C580.059 23.8682 582.311 24.3493 584.421 25.2234C586.703 26.1688 588.778 27.5547 590.524 29.3015C592.271 31.0483 593.656 33.1228 594.602 35.405C595.547 37.6873 596.034 40.1339 596.034 42.6042C596.034 45.0745 595.547 47.5212 594.602 49.8035C593.656 52.0854 592.271 54.1594 590.524 55.906C589.033 57.3974 587.302 58.6241 585.407 59.5398L602.4 83.5564H587.357L571.809 61.4148H564.5V83.5476H552.328V61.4148H552.327V49.2429H552.328V37.0701H552.327V23.7908H577.779V23.8005ZM628.127 83.5476H615.954V23.7908H628.127V83.5476ZM664.146 22.6414C670.151 20.5651 676.646 20.3675 682.766 22.0749C688.885 23.7825 694.339 27.3141 698.4 32.199L688.724 40.2449C686.234 37.2596 682.875 35.1245 679.114 34.1374C675.345 33.1481 671.36 33.3613 667.718 34.7478C664.076 36.1343 660.958 38.6244 658.801 41.8699C656.644 45.1155 655.555 48.9544 655.687 52.8494C655.818 56.7443 657.164 60.5011 659.536 63.5935C661.908 66.6858 665.187 68.9602 668.914 70.0974C672.641 71.2345 676.631 71.178 680.325 69.9363C683.294 68.938 685.952 67.2115 688.066 64.9333L697.253 73.4792C692.926 78.1309 687.283 81.3538 681.078 82.7185C674.873 84.083 668.4 83.5246 662.521 81.1179C656.641 78.7111 651.634 74.5696 648.167 69.2458C644.7 63.922 642.938 57.6679 643.114 51.3171C643.291 44.9664 645.398 38.82 649.155 33.697C652.913 28.5742 658.142 24.7177 664.146 22.6414ZM674.493 52.3074L674.369 52.2175L674.383 52.2048L674.493 52.3074ZM564.5 49.2429H577.222V37.0701H564.5V49.2429ZM577.224 49.2429C578.023 49.2428 578.815 49.0858 579.553 48.78C580.291 48.4742 580.962 48.0257 581.527 47.4607C582.092 46.8956 582.541 46.2243 582.847 45.4861C583.152 44.7478 583.31 43.9561 583.31 43.157C583.31 42.3579 583.152 41.5662 582.847 40.8279C582.541 40.0896 582.092 39.4183 581.527 38.8533C580.962 38.2882 580.291 37.8398 579.553 37.5339C578.815 37.2282 578.023 37.0711 577.224 37.071V49.2429Z" fill="url(#paint7_linear_152_301)"/>
</mask>
<g mask="url(#mask0_152_301)">
<rect x="-34.9438" y="-129.6" width="777.598" height="361.354" rx="8.77852" fill="white"/>
</g>
<defs>
<linearGradient id="paint0_linear_152_301" x1="60.9878" y1="54.2236" x2="120.194" y2="54.2236" gradientUnits="userSpaceOnUse">
<stop stop-color="#0F56C9"/>
<stop offset="1" stop-color="#171661"/>
</linearGradient>
<linearGradient id="paint1_linear_152_301" x1="10.6392" y1="74.1416" x2="60.9897" y2="74.1416" gradientUnits="userSpaceOnUse">
<stop stop-color="#0F56C9"/>
<stop offset="1" stop-color="#171661"/>
</linearGradient>
<linearGradient id="paint2_linear_152_301" x1="0.124023" y1="57.542" x2="84.7793" y2="57.542" gradientUnits="userSpaceOnUse">
<stop stop-color="#0F56C9"/>
<stop offset="1" stop-color="#171661"/>
</linearGradient>
<linearGradient id="paint3_linear_152_301" x1="21.6987" y1="54.5005" x2="99.7183" y2="54.5005" gradientUnits="userSpaceOnUse">
<stop stop-color="#0F56C9"/>
<stop offset="1" stop-color="#171661"/>
</linearGradient>
<linearGradient id="paint4_linear_152_301" x1="153.945" y1="53.8068" x2="337.089" y2="53.8068" gradientUnits="userSpaceOnUse">
<stop stop-color="#0F56C9"/>
<stop offset="1" stop-color="#171661"/>
</linearGradient>
<linearGradient id="paint5_linear_152_301" x1="153.945" y1="53.8068" x2="337.089" y2="53.8068" gradientUnits="userSpaceOnUse">
<stop stop-color="#0F56C9"/>
<stop offset="1" stop-color="#171661"/>
</linearGradient>
<linearGradient id="paint6_linear_152_301" x1="153.945" y1="53.8068" x2="337.089" y2="53.8068" gradientUnits="userSpaceOnUse">
<stop stop-color="#0F56C9"/>
<stop offset="1" stop-color="#171661"/>
</linearGradient>
<linearGradient id="paint7_linear_152_301" x1="353.411" y1="52.3745" x2="698.4" y2="52.3745" gradientUnits="userSpaceOnUse">
<stop stop-color="#0F56C9"/>
<stop offset="1" stop-color="#171661"/>
</linearGradient>
</defs>
</svg>
