<svg width="1194" height="187" viewBox="0 0 1194 187" fill="none" xmlns="http://www.w3.org/2000/svg">
<mask id="mask0_69_5" style="mask-type:alpha" maskUnits="userSpaceOnUse" x="0" y="0" width="1194" height="187">
<path d="M171.246 0.614502C175.949 0.614508 179.762 4.42661 179.762 9.12915C179.762 11.524 178.771 13.6864 177.18 15.2336L200.664 169.951C203.421 171.361 205.309 174.226 205.31 177.535C205.31 182.238 201.498 186.051 196.795 186.051C193.452 186.051 190.561 184.124 189.168 181.321H185.495C184.101 184.124 181.21 186.051 177.867 186.051C173.165 186.051 169.353 182.238 169.353 177.535C169.353 174.687 170.752 172.166 172.9 170.62L155.577 51.0061C152.553 49.699 150.437 46.6903 150.437 43.1868C150.437 38.4846 154.249 34.6725 158.951 34.6721C163.654 34.6721 167.467 38.4843 167.467 43.1868C167.467 45.983 166.119 48.4643 164.037 50.0168L181.384 169.781C182.835 170.441 184.07 171.493 184.948 172.806H189.715C190.349 171.858 191.169 171.044 192.123 170.417L168.883 17.3098C166.923 16.7444 165.253 15.4951 164.15 13.8352C162.82 15.8371 160.666 17.2426 158.172 17.5696L120.431 90.9553C120.864 91.9759 121.103 93.0982 121.104 94.2766C121.104 98.9793 117.291 102.792 112.588 102.792C107.885 102.792 104.073 98.9792 104.073 94.2766C104.074 89.5744 107.886 85.7621 112.588 85.762C112.897 85.762 113.202 85.7787 113.502 85.8108L150.284 14.2913C149.191 12.8589 148.54 11.0702 148.54 9.12915C148.54 4.42676 152.352 0.614726 157.055 0.614502C160.017 0.614502 162.625 2.1275 164.15 4.42212C165.676 2.12734 168.284 0.614612 171.246 0.614502ZM178.342 173.752C176.513 173.752 175.032 175.234 175.031 177.063C175.031 178.891 176.513 180.374 178.342 180.374C180.171 180.374 181.653 178.892 181.653 177.063C181.653 175.234 180.17 173.752 178.342 173.752ZM197.27 173.752C195.441 173.752 193.958 175.235 193.958 177.064C193.958 178.892 195.441 180.374 197.27 180.374C199.098 180.374 200.581 178.892 200.581 177.064C200.581 175.235 199.098 173.752 197.27 173.752ZM113.062 90.4934C111.234 90.4934 109.751 91.9763 109.751 93.8049C109.751 95.6335 111.234 97.1155 113.062 97.1155C114.891 97.1155 116.374 95.6335 116.374 93.8049C116.374 91.9763 114.891 90.4934 113.062 90.4934ZM159.426 39.4036C157.597 39.4038 156.114 40.8865 156.114 42.7151C156.114 44.5436 157.597 46.0254 159.426 46.0256C161.254 46.0256 162.737 44.5437 162.737 42.7151C162.737 40.8864 161.255 39.4036 159.426 39.4036ZM171.72 5.34595C169.891 5.34615 168.409 6.82877 168.409 8.65747C168.409 10.486 169.891 11.9688 171.72 11.969C173.548 11.969 175.031 10.4862 175.031 8.65747C175.031 6.82865 173.549 5.34595 171.72 5.34595ZM157.529 5.34595C155.701 5.34603 154.218 6.82871 154.218 8.65747C154.218 10.4861 155.701 11.9679 157.529 11.968C159.358 11.968 160.841 10.4861 160.841 8.65747C160.841 6.82866 159.358 5.34595 157.529 5.34595Z" fill="url(#paint0_linear_69_5)"/>
<path d="M40.6855 68.7325C45.388 68.7325 49.2009 72.5447 49.2012 77.2471C49.2012 78.0276 49.0932 78.7829 48.8965 79.501L96.5381 169.077C100.78 169.562 104.075 173.163 104.075 177.534C104.075 182.237 100.262 186.05 95.5596 186.05C90.8572 186.05 87.0449 182.237 87.0449 177.534C87.0451 175.644 87.6624 173.897 88.7051 172.484L42.7432 86.0655L31.8457 154.83C33.7749 156.391 35.0097 158.776 35.0098 161.451C35.0097 166.154 31.1968 169.967 26.4941 169.967C21.7916 169.967 17.9795 166.154 17.9795 161.451C17.9796 157.827 20.2439 154.733 23.4346 153.504L34.5801 83.1788C33.0901 81.6451 32.1709 79.5541 32.1709 77.2471C32.1711 72.5447 35.9831 68.7327 40.6855 68.7325ZM96.0342 173.75C94.2057 173.75 92.723 175.233 92.7227 177.062C92.7227 178.89 94.2055 180.373 96.0342 180.373C97.8629 180.373 99.3457 178.89 99.3457 177.062C99.3454 175.233 97.8627 173.75 96.0342 173.75ZM26.9697 157.668C25.141 157.668 23.6584 159.15 23.6582 160.979C23.6583 162.807 25.1409 164.29 26.9697 164.29C28.7983 164.29 30.2802 162.807 30.2803 160.979C30.2801 159.15 28.7982 157.668 26.9697 157.668ZM41.1602 73.4639C39.3315 73.4641 37.8496 74.9468 37.8496 76.7755C37.8499 78.6039 39.3317 80.0858 41.1602 80.086C42.9888 80.0859 44.4714 78.604 44.4717 76.7755C44.4716 74.9467 42.9889 73.464 41.1602 73.4639Z" fill="url(#paint1_linear_69_5)"/>
<path d="M32.166 11.9633C36.8686 11.9633 40.6814 15.7754 40.6816 20.4779C40.6816 22.3933 40.049 24.1607 38.9814 25.5834L39.6836 25.2103L112.151 161.467C112.224 161.471 112.296 161.478 112.368 161.484L128.813 130.608C128.121 129.376 127.724 127.956 127.724 126.443C127.724 121.74 131.536 117.928 136.238 117.928C140.941 117.928 144.754 121.74 144.754 126.443C144.754 131.145 140.941 134.958 136.238 134.958C136.207 134.958 136.176 134.956 136.146 134.955L119.383 166.43C119.875 167.507 120.152 168.704 120.152 169.965C120.152 174.668 116.339 178.481 111.637 178.481C106.934 178.481 103.122 174.668 103.122 169.965C103.122 168.231 103.641 166.618 104.531 165.273L33.8203 32.3187L13.3555 170.53C14.2372 171.14 14.9987 171.912 15.5957 172.803H35.4932C36.3692 171.495 37.599 170.444 39.0449 169.785L44.5947 136.683C42.7805 135.121 41.6299 132.809 41.6299 130.228C41.6303 125.526 45.4424 121.714 50.1445 121.713C54.847 121.713 58.6598 125.526 58.6602 130.228C58.6602 133.943 56.2803 137.099 52.9629 138.263L47.5381 170.619C49.6874 172.164 51.0888 174.684 51.0889 177.534C51.0888 182.236 47.2759 186.049 42.5732 186.049C39.2305 186.049 36.3397 184.121 34.9463 181.318H16.1426C14.7489 184.121 11.8577 186.049 8.51465 186.049C3.81211 186.049 0 182.236 0 177.534C0.000198785 174.143 1.98163 171.216 4.84961 169.846L26.084 26.4349C24.58 24.8991 23.6514 22.7972 23.6514 20.4779C23.6516 15.7757 27.4638 11.9637 32.166 11.9633ZM8.98926 173.749C7.16058 173.749 5.67797 175.232 5.67773 177.061C5.67773 178.89 7.16043 180.372 8.98926 180.372C10.8181 180.372 12.3008 178.89 12.3008 177.061C12.3005 175.232 10.8179 173.749 8.98926 173.749ZM43.0488 173.75C41.2202 173.75 39.7375 175.232 39.7373 177.061C39.7374 178.89 41.2201 180.372 43.0488 180.372C44.8775 180.372 46.3603 178.89 46.3604 177.061C46.3601 175.232 44.8774 173.751 43.0488 173.75ZM112.112 166.182C110.284 166.182 108.801 167.664 108.801 169.493C108.801 171.321 110.284 172.804 112.112 172.804C113.941 172.804 115.424 171.321 115.424 169.493C115.424 167.664 113.941 166.182 112.112 166.182ZM50.6191 126.443C48.7907 126.443 47.3078 127.926 47.3076 129.754C47.3077 131.583 48.7907 133.065 50.6191 133.066C52.4479 133.066 53.9306 131.583 53.9307 129.754C53.9304 127.926 52.4478 126.443 50.6191 126.443ZM136.713 122.66C134.884 122.66 133.401 124.142 133.401 125.971C133.402 127.8 134.884 129.281 136.713 129.282C138.541 129.282 140.024 127.8 140.024 125.971C140.024 124.142 138.542 122.66 136.713 122.66ZM32.6406 16.6947C30.812 16.6949 29.3291 18.1776 29.3291 20.0062C29.3294 21.8347 30.8122 23.3165 32.6406 23.3168C34.4693 23.3167 35.9519 21.8348 35.9521 20.0062C35.9521 18.1775 34.4694 16.6947 32.6406 16.6947Z" fill="url(#paint2_linear_69_5)"/>
<path d="M45.4062 0.614502C50.1088 0.614502 53.9217 4.42661 53.9219 9.12915C53.9219 10.7565 53.4639 12.2765 52.6719 13.5696L111.25 123.71C111.644 123.648 112.047 123.615 112.457 123.609L139.62 72.6038C138.679 71.2338 138.127 69.5751 138.127 67.7874C138.127 63.085 141.939 59.2729 146.642 59.2727C151.344 59.2729 155.157 63.0851 155.157 67.7874C155.157 70.3025 154.065 72.5624 152.331 74.1213L165.254 170.706C168.225 172.035 170.297 175.015 170.297 178.481C170.297 183.183 166.484 186.996 161.781 186.996C157.079 186.996 153.267 183.183 153.267 178.481C153.267 175.647 154.652 173.137 156.781 171.589L144.688 81.2024L119.896 127.755C120.66 129.032 121.1 130.524 121.101 132.12C121.101 136.823 117.287 140.636 112.585 140.636C107.882 140.636 104.07 136.823 104.07 132.12C104.07 131.12 104.244 130.16 104.561 129.269L45.1914 17.6389C40.5882 17.5247 36.8916 13.7599 36.8916 9.12915C36.8918 4.42672 40.7038 0.614676 45.4062 0.614502ZM162.256 174.698C160.427 174.698 158.944 176.18 158.944 178.009C158.945 179.838 160.427 181.32 162.256 181.32C164.084 181.319 165.567 179.838 165.567 178.009C165.567 176.18 164.085 174.698 162.256 174.698ZM113.061 128.337C111.232 128.337 109.749 129.82 109.749 131.649C109.749 133.477 111.232 134.959 113.061 134.959C114.889 134.959 116.371 133.477 116.371 131.649C116.371 129.82 114.889 128.338 113.061 128.337ZM147.116 64.0042C145.287 64.0042 143.805 65.487 143.805 67.3157C143.805 69.1443 145.288 70.6262 147.116 70.6262C148.945 70.626 150.427 69.1441 150.428 67.3157C150.428 65.4871 148.945 64.0044 147.116 64.0042ZM45.8809 5.34595C44.052 5.34596 42.5693 6.82865 42.5693 8.65747C42.5695 10.4862 44.0521 11.969 45.8809 11.969C47.7096 11.969 49.1922 10.4862 49.1924 8.65747C49.1924 6.82864 47.7097 5.34595 45.8809 5.34595Z" fill="url(#paint3_linear_69_5)"/>
<path d="M263.021 143.947H282.89V78.6653L319.788 115.564L357.159 78.6653V143.947H377.027V41.2939H365.674L319.788 86.2341L274.848 41.2939H263.021V143.947Z" fill="url(#paint4_linear_69_5)"/>
<path d="M413.926 143.947V41.2939H478.734V62.5814H433.321V83.3958H466.435V103.264H433.321V124.552H478.734V143.947H413.926Z" fill="url(#paint5_linear_69_5)"/>
<path d="M500.021 62.5814V41.2939H576.183V62.5814H548.273V143.947H527.932V62.5814H500.021Z" fill="url(#paint6_linear_69_5)"/>
<path d="M660.86 86.2346L706.746 41.2941H719.046V143.947H697.759V79.1389L660.86 115.091L623.962 79.1389V143.947H604.094V41.2941H615.92L660.86 86.2346ZM820.752 63.0549H774.866V82.923H807.979V104.211H774.866V124.079H820.752V143.947H753.579V41.2941H820.752V63.0549ZM918.201 63.0549H889.818V143.947H869.004V63.0549H840.621V41.2941H918.201V63.0549ZM987.745 41.3117C991.644 41.4273 995.493 42.2497 999.102 43.7443C1003 45.3608 1006.55 47.7312 1009.54 50.718C1012.52 53.7048 1014.89 57.2511 1016.51 61.1535C1018.13 65.0561 1018.96 69.24 1018.96 73.4641C1018.96 77.6881 1018.13 81.8711 1016.51 85.7736C1014.89 89.6764 1012.52 93.2231 1009.54 96.2102C1006.99 98.7599 1004.03 100.857 1000.79 102.422L1029.85 143.488H1004.12L977.537 105.629H965.04V143.475H944.226V105.629H944.225V84.8146H944.226V64.0021H944.225V41.2951H987.745V41.3117ZM1073.84 143.475H1053.02V41.2941H1073.84V143.475ZM1135.43 39.3303C1145.69 35.7799 1156.8 35.4419 1167.26 38.3615C1177.73 41.2812 1187.05 47.3193 1194 55.6721L1177.45 69.4309C1173.2 64.3261 1167.45 60.6744 1161.02 58.9865C1154.58 57.2947 1147.76 57.6596 1141.54 60.0305C1135.31 62.4014 1129.98 66.6603 1126.29 72.2102C1122.6 77.7598 1120.74 84.3237 1120.96 90.9836C1121.19 97.6437 1123.49 104.068 1127.54 109.356C1131.6 114.643 1137.21 118.531 1143.58 120.476C1149.95 122.42 1156.78 122.324 1163.09 120.2C1168.17 118.493 1172.71 115.544 1176.33 111.649L1192.04 126.259C1184.64 134.213 1174.99 139.723 1164.38 142.057C1153.77 144.39 1142.7 143.436 1132.65 139.321C1122.59 135.205 1114.03 128.123 1108.1 119.02C1102.18 109.916 1099.16 99.2227 1099.46 88.3635C1099.77 77.5042 1103.37 66.9944 1109.79 58.2346C1116.22 49.4748 1125.16 42.8807 1135.43 39.3303ZM1153.13 90.0617L1152.91 89.9035L1152.93 89.8811L1153.13 90.0617ZM965.04 84.8146H986.792V64.0021H965.04V84.8146ZM986.795 84.8146H986.874C988.214 84.8044 989.539 84.5374 990.777 84.0246C992.04 83.5016 993.188 82.7351 994.154 81.7687C995.121 80.8024 995.887 79.6544 996.41 78.3918C996.933 77.1293 997.202 75.7758 997.202 74.4094C997.202 73.043 996.933 71.6893 996.41 70.427C995.887 69.1646 995.12 68.0162 994.154 67.05C993.188 66.0839 992.04 65.3171 990.777 64.7941C989.515 64.2714 988.161 64.0022 986.795 64.0021V84.8146Z" fill="url(#paint7_linear_69_5)"/>
</mask>
<g mask="url(#mask0_69_5)">
<rect x="-59.9639" y="-220.991" width="1329.63" height="617.889" rx="15.0106" fill="white"/>
</g>
<defs>
<linearGradient id="paint0_linear_69_5" x1="104.073" y1="93.3328" x2="205.31" y2="93.3328" gradientUnits="userSpaceOnUse">
<stop stop-color="#0F56C9"/>
<stop offset="1" stop-color="#171661"/>
</linearGradient>
<linearGradient id="paint1_linear_69_5" x1="17.9795" y1="127.391" x2="104.075" y2="127.391" gradientUnits="userSpaceOnUse">
<stop stop-color="#0F56C9"/>
<stop offset="1" stop-color="#171661"/>
</linearGradient>
<linearGradient id="paint2_linear_69_5" x1="0" y1="99.0062" x2="144.754" y2="99.0062" gradientUnits="userSpaceOnUse">
<stop stop-color="#0F56C9"/>
<stop offset="1" stop-color="#171661"/>
</linearGradient>
<linearGradient id="paint3_linear_69_5" x1="36.8916" y1="93.8054" x2="170.297" y2="93.8054" gradientUnits="userSpaceOnUse">
<stop stop-color="#0F56C9"/>
<stop offset="1" stop-color="#171661"/>
</linearGradient>
<linearGradient id="paint4_linear_69_5" x1="263.021" y1="92.6204" x2="576.183" y2="92.6204" gradientUnits="userSpaceOnUse">
<stop stop-color="#0F56C9"/>
<stop offset="1" stop-color="#171661"/>
</linearGradient>
<linearGradient id="paint5_linear_69_5" x1="263.021" y1="92.6204" x2="576.183" y2="92.6204" gradientUnits="userSpaceOnUse">
<stop stop-color="#0F56C9"/>
<stop offset="1" stop-color="#171661"/>
</linearGradient>
<linearGradient id="paint6_linear_69_5" x1="263.021" y1="92.6204" x2="576.183" y2="92.6204" gradientUnits="userSpaceOnUse">
<stop stop-color="#0F56C9"/>
<stop offset="1" stop-color="#171661"/>
</linearGradient>
<linearGradient id="paint7_linear_69_5" x1="604.094" y1="90.1712" x2="1194" y2="90.1712" gradientUnits="userSpaceOnUse">
<stop stop-color="#0F56C9"/>
<stop offset="1" stop-color="#171661"/>
</linearGradient>
</defs>
</svg>
